HIERARCHY
ROOT Hips
{
	OFFSET 0.000000 0.000000 0.000000
	CHANNELS 6 Xposition Yposition Zposition Zrotation Yrotation Xrotation 
	JOINT LHipJoint
	{
		OFFSET 0.000000 0.000000 0.000000
		CHANNELS 3 Zrotation Yrotation Xrotation
		JOINT LeftUpLeg
		{
			OFFSET 1.363060 -1.794630 0.839290
			CHANNELS 3 Zrotation Yrotation Xrotation
			JOINT LeftLeg
			{
				OFFSET 2.448110 -6.726130 0.000000
				CHANNELS 3 Zrotation Yrotation Xrotation
				JOINT LeftFoot
				{
					OFFSET 2.562200 -7.039590 0.000000
					CHANNELS 3 Zrotation Yrotation Xrotation
					JOINT LeftToeBase
					{
						OFFSET 0.157640 -0.433110 2.322550
						CHANNELS 3 Zrotation Yrotation Xrotation
						End Site
						{
							OFFSET 0.000000 0.000000 0.000000
						}
					}
				}
			}
		}
	}
	JOINT RHipJoint
	{
		OFFSET 0.000000 0.000000 0.000000
		CHANNELS 3 Zrotation Yrotation Xrotation
		JOINT RightUpLeg
		{
			OFFSET -1.305520 -1.794630 0.839290
			CHANNELS 3 Zrotation Yrotation Xrotation
			JOINT RightLeg
			{
				OFFSET -2.542530 -6.985550 0.000000
				CHANNELS 3 Zrotation Yrotation Xrotation
				JOINT RightFoot
				{
					OFFSET -2.568260 -7.056230 0.000000
					CHANNELS 3 Zrotation Yrotation Xrotation
					JOINT RightToeBase
					{
						OFFSET -0.164730 -0.452590 2.363150
						CHANNELS 3 Zrotation Yrotation Xrotation
						End Site
						{
							OFFSET 0.000000 0.000000 0.000000
						}
					}
				}
			}
		}
	}
	JOINT LowerBack
	{
		OFFSET 0.000000 0.000000 0.000000
		CHANNELS 3 Zrotation Yrotation Xrotation
		JOINT Spine
		{
			OFFSET 0.028270 2.035590 -0.193380
			CHANNELS 3 Zrotation Yrotation Xrotation
			JOINT Spine1
			{
				OFFSET 0.056720 2.048850 -0.042750
				CHANNELS 3 Zrotation Yrotation Xrotation
				JOINT Neck
				{
					OFFSET 0.000000 0.000000 0.000000
					CHANNELS 3 Zrotation Yrotation Xrotation
					JOINT Neck1
					{
						OFFSET -0.054170 1.746240 0.172020
						CHANNELS 3 Zrotation Yrotation Xrotation
						JOINT Head
						{
							OFFSET 0.104070 1.761360 -0.123970
							CHANNELS 3 Zrotation Yrotation Xrotation
							End Site
							{
								OFFSET 0.000000 0.000000 0.000000
							}
						}
					}
				}
				JOINT LeftShoulder
				{
					OFFSET 0.000000 0.000000 0.000000
					CHANNELS 3 Zrotation Yrotation Xrotation
					JOINT LeftArm
					{
						OFFSET 3.362410 1.200890 -0.311210
						CHANNELS 3 Zrotation Yrotation Xrotation
						JOINT LeftForeArm
						{
							OFFSET 4.983000 -0.000000 -0.000000
							CHANNELS 3 Zrotation Yrotation Xrotation
							JOINT LeftHand
							{
								OFFSET 3.483560 -0.000000 -0.000000
								CHANNELS 3 Zrotation Yrotation Xrotation
								JOINT LeftFingerBase
								{
									OFFSET 0.000000 0.000000 0.000000
									CHANNELS 3 Zrotation Yrotation Xrotation
									JOINT LeftHandIndex1
									{
										OFFSET 0.715260 -0.000000 -0.000000
										CHANNELS 3 Zrotation Yrotation Xrotation
										End Site
										{
											OFFSET 0.000000 0.000000 0.000000
										}
									}
								}
								JOINT LThumb
								{
									OFFSET 0.000000 0.000000 0.000000
									CHANNELS 3 Zrotation Yrotation Xrotation
									End Site
									{
										OFFSET 0.000000 0.000000 0.000000
									}
								}
							}
						}
					}
				}
				JOINT RightShoulder
				{
					OFFSET 0.000000 0.000000 0.000000
					CHANNELS 3 Zrotation Yrotation Xrotation
					JOINT RightArm
					{
						OFFSET -3.136600 1.374050 -0.404650
						CHANNELS 3 Zrotation Yrotation Xrotation
						JOINT RightForeArm
						{
							OFFSET -5.241900 -0.000000 -0.000000
							CHANNELS 3 Zrotation Yrotation Xrotation
							JOINT RightHand
							{
								OFFSET -3.444170 -0.000000 -0.000000
								CHANNELS 3 Zrotation Yrotation Xrotation
								JOINT RightFingerBase
								{
									OFFSET 0.000000 0.000000 0.000000
									CHANNELS 3 Zrotation Yrotation Xrotation
									JOINT RightHandIndex1
									{
										OFFSET -0.622530 -0.000000 -0.000000
										CHANNELS 3 Zrotation Yrotation Xrotation
										End Site
										{
											OFFSET 0.000000 0.000000 0.000000
										}
									}
								}
								JOINT RThumb
								{
									OFFSET 0.000000 0.000000 0.000000
									CHANNELS 3 Zrotation Yrotation Xrotation
									End Site
									{
										OFFSET 0.000000 0.000000 0.000000
									}
								}
							}
						}
					}
				}
			}
		}
	}
}
MOTION
Frames: 12
Frame Time: 0.008333
5.448865 17.583043 -4.270737 -0.386608 31.302329 10.270988 -0.265166 3.338521 1.321057 -24.542814 5.825903 -14.106298 1.730205 8.416738 27.110632 -0.962351 7.132620 -11.976438 0.380900 -3.963400 -10.973800 -3.367055 -4.203959 0.005541 30.917126 1.093697 -30.163274 -1.227608 -9.169233 27.757352 3.887705 -25.201179 -23.949984 -3.937400 -12.076700 36.003800 4.592328 -3.507444 -5.705937 1.629302 -5.183085 -4.771791 -4.598970 -2.774676 2.621048 -1.949885 -6.547183 -12.321976 0.485971 -7.947963 18.641855 -1.207000 -3.803800 7.356200 -7.625863 -13.650190 3.813851 -50.022544 -10.649011 22.181854 136.787080 -38.262704 -105.989479 0.937343 0.067877 -73.636006 28.206281 54.257886 23.562000 -7.125000 0.000000 0.000000 -82.260900 82.296800 -74.490100 3.508456 13.876771 2.001915 75.275168 -14.103911 -5.136253 -128.487585 47.185088 -98.933185 0.577199 -0.937544 -40.580393 -13.959428 -15.952873 3.597700 7.125000 0.000000 0.000000 12.746900 -44.852100 0.047300 
5.560486 17.572383 -4.133901 -0.369640 30.659503 9.941120 -0.194603 3.346239 1.296580 -24.364261 6.670964 -14.835113 2.260272 9.250695 29.779870 -0.837886 6.541937 -11.308110 0.602600 -4.969000 -13.820100 -3.364451 -4.259398 -0.009895 30.771314 0.728434 -28.665808 -1.138021 -8.825642 27.006466 3.677784 -24.339047 -23.754331 -3.898300 -12.023900 35.816500 4.965676 -3.684672 -5.835694 1.640024 -5.462001 -4.716543 -4.903373 -2.893301 2.840260 -1.859963 -6.300794 -12.415206 0.202322 -7.567781 18.846542 -1.302500 -3.636000 7.421800 -7.628868 -13.667632 3.793805 -50.298732 -9.330057 19.424628 136.644034 -38.666299 -105.999040 0.911533 0.151214 -74.860624 25.639417 55.711172 21.573600 -7.125000 0.000000 0.000000 -88.777700 81.092600 -79.747900 3.527141 13.930401 2.050585 75.603342 -15.950898 -8.028248 -129.055248 47.105615 -99.528331 0.538494 -1.047869 -39.654313 -11.741533 -14.756656 2.735200 7.125000 0.000000 0.000000 14.443800 -43.360400 0.597700 
5.656836 17.566951 -4.001061 -0.692645 29.422654 9.780366 -0.080404 3.330484 1.223603 -23.995411 7.663165 -16.534838 2.989940 10.345818 33.319893 -0.797319 6.205783 -10.243865 1.115900 -6.710900 -18.861700 -3.420438 -4.321269 0.013658 31.219438 0.720410 -27.818624 -1.111941 -8.618245 26.584165 3.707581 -24.110393 -22.714593 -3.489500 -11.448100 33.806600 5.452622 -3.624773 -6.197546 1.693373 -5.468828 -4.703590 -5.080202 -2.868546 3.070379 -1.719145 -6.079669 -12.496658 -0.095793 -7.225809 19.089458 -1.424000 -3.480300 7.495500 -7.598848 -13.663860 3.756961 -50.982958 -8.035002 17.149645 136.457845 -39.103047 -105.923769 0.883122 0.218172 -75.905681 23.274027 57.257739 19.751400 -7.125000 0.000000 0.000000 -94.902100 79.891800 -84.748900 3.569471 13.978493 2.104791 75.848272 -17.657354 -11.033142 -129.122978 47.295928 -99.721602 0.515941 -1.171358 -38.743398 -9.669118 -13.223785 1.955600 7.125000 0.000000 0.000000 15.866900 -41.570800 1.380900 
5.744165 17.567668 -3.874577 -0.979893 27.985197 9.602243 0.059710 3.298851 1.136856 -23.571973 8.410470 -18.498371 3.915051 11.535403 37.392295 -0.559538 4.921842 -8.294572 1.111400 -6.697800 -18.823000 -3.470850 -4.349769 0.054926 31.567458 0.954436 -26.999514 -1.121659 -8.477228 26.379389 3.527119 -23.270110 -22.230221 -3.413100 -11.335500 33.419900 5.826090 -3.502612 -6.328296 1.730347 -5.361194 -4.713657 -5.198070 -2.794592 3.136679 -1.369243 -5.892061 -12.563049 -0.551663 -6.937336 19.342144 -1.654900 -3.343000 7.566700 -7.542480 -13.646853 3.700436 -52.018730 -6.710882 15.384442 136.262178 -39.535177 -105.788364 0.861778 0.256028 -76.291562 21.346678 58.975168 18.318000 -7.125000 0.000000 0.000000 -90.277000 -78.930200 101.564500 3.624928 14.040437 2.170566 76.060356 -19.299777 -14.425376 -128.635234 47.844257 -99.415857 0.460008 -1.356387 -37.556261 -5.915348 -11.756192 0.987800 7.125000 0.000000 0.000000 18.726100 -39.714000 2.543600 
5.788240 17.561313 -3.755781 -0.921791 25.103623 9.440678 0.259140 3.284344 1.008237 -23.412951 10.496183 -21.597364 5.254484 13.043060 42.918106 -0.326461 3.583342 -5.749819 1.040100 -6.486200 -18.201800 -3.548946 -4.321329 0.159533 31.631185 2.714630 -25.855427 -1.206387 -8.475616 26.625231 3.329579 -22.432357 -21.991406 -3.412400 -11.334500 33.416300 5.388017 -3.059478 -5.816836 1.675017 -4.686709 -4.744008 -4.925957 -2.461838 2.858042 -0.999119 -5.695625 -12.490669 -0.880780 -6.665975 19.510017 -1.863100 -3.197400 7.596300 -7.468099 -13.625783 3.631304 -53.158102 -5.162677 14.311658 135.964791 -39.992571 -105.614765 0.874556 0.233391 -76.564791 22.189798 58.921329 19.089100 -7.125000 0.000000 0.000000 -91.328800 -79.207200 102.339200 3.664456 14.112430 2.231609 76.510416 -20.589032 -17.970085 -127.516859 48.716101 -98.545353 0.393231 -1.582956 -35.935979 -1.224175 -10.131471 0.091900 7.125000 0.000000 0.000000 22.189200 -37.668500 4.260800 
5.874339 17.568898 -3.631961 -1.195923 24.101108 9.001209 0.465824 3.257824 0.907828 -22.636923 10.923398 -24.194002 6.783174 14.507101 48.817617 -0.118397 2.274996 -2.326166 1.080300 -6.606400 -18.554500 -3.619996 -4.380750 0.173131 32.086725 2.331333 -24.650009 -1.166739 -8.207345 26.108814 3.235629 -21.870459 -21.439186 -3.237500 -11.069900 32.516200 5.849126 -3.253101 -5.668627 1.735642 -4.966934 -4.750153 -5.145607 -2.583610 2.799176 -0.893786 -5.423487 -12.351354 -0.892093 -6.307189 19.594449 -1.877000 -3.013100 7.600400 -7.392983 -13.606798 3.558285 -54.625193 -3.514390 13.290297 135.478477 -40.630274 -105.266708 0.897610 0.197543 -75.864908 22.420370 59.184795 19.364900 -7.125000 0.000000 0.000000 -93.015500 -79.210600 104.039600 3.719059 14.158628 2.301958 76.680096 -21.883367 -20.285010 -126.269940 49.495306 -97.617254 0.397319 -1.716388 -35.873040 0.633573 -8.358153 -0.154700 7.125000 0.000000 0.000000 23.182400 -35.793100 5.630200 
5.927331 17.561006 -3.527105 -1.244424 21.741326 8.841522 0.686354 3.230009 0.799901 -22.059864 11.992602 -27.428379 8.423593 15.842560 54.796416 0.093486 1.063499 1.810249 0.696500 -5.334700 -14.865700 -3.714134 -4.386061 0.245626 32.391155 3.259435 -23.503177 -1.184774 -8.062408 25.929092 3.101919 -21.156907 -20.882076 -3.076900 -10.818500 31.670300 5.842206 -3.163463 -5.198939 1.721178 -4.793769 -4.827147 -5.139855 -2.499612 2.400651 -0.844260 -5.070381 -12.134298 -0.738936 -5.861759 19.607919 -1.826600 -2.777300 7.585400 -7.300866 -13.601592 3.462754 -56.222358 -1.467544 12.447018 134.992305 -41.259500 -104.906391 0.920207 0.155556 -74.647283 22.181677 59.477815 19.219100 -7.125000 0.000000 0.000000 -94.082700 -79.061500 105.271700 3.760978 14.217716 2.362550 76.826915 -23.070417 -21.949398 -124.973733 50.203049 -96.612381 0.394417 -1.819281 -35.423972 2.352969 -7.067401 -0.288500 7.125000 0.000000 0.000000 24.168700 -34.414700 6.797800 
5.990266 17.546656 -3.427988 -1.660965 19.715828 8.600205 0.887252 3.178744 0.697227 -21.058979 12.767756 -30.807841 10.218684 17.110714 61.034378 0.167345 0.783644 3.733035 0.984200 -6.314800 -17.700500 -3.818068 -4.404473 0.304301 33.058146 3.781903 -22.431420 -1.187013 -7.877537 25.640185 2.914237 -20.237365 -20.392469 -2.989600 -10.678200 31.202000 6.258081 -3.207760 -4.904317 1.827476 -4.859846 -4.898083 -5.104860 -2.523070 2.093125 -0.886115 -4.655964 -11.846954 -0.722680 -5.301579 19.552348 -1.802400 -2.506600 7.529300 -7.161189 -13.589756 3.342835 -58.410588 0.787766 11.903914 134.568553 -41.816685 -104.551457 0.942416 0.105281 -73.025782 21.838320 59.357213 18.905800 -7.125000 0.000000 0.000000 -93.093500 -78.997700 104.345100 3.826871 14.255437 2.435655 76.708035 -24.028471 -23.368081 -123.292836 51.036902 -95.246780 0.367563 -1.946228 -33.719587 5.266865 -5.374314 -0.375000 7.125000 0.000000 0.000000 25.895500 -32.589800 8.657600 
6.056173 17.525541 -3.336353 -2.232356 17.622995 8.290276 1.090225 3.108348 0.605061 -19.674691 13.151927 -33.837633 11.957257 18.128320 66.798449 0.347589 -0.202459 5.222478 0.941500 -6.180000 -17.307600 -3.928324 -4.427945 0.331536 33.859095 3.961478 -21.594516 -1.233745 -7.770133 25.554150 2.734127 -19.227539 -19.546034 -2.698400 -10.190000 29.594400 6.942314 -3.193751 -4.707982 1.909243 -4.880773 -4.858049 -5.295432 -2.510711 2.078149 -0.841481 -4.267703 -11.813264 -0.654355 -4.795181 19.545566 -1.778500 -2.252800 7.534000 -7.009458 -13.579085 3.222939 -60.828251 2.801373 11.606951 134.000571 -42.426635 -104.066342 0.957553 0.044232 -71.303313 21.956448 59.077921 18.988300 -7.125000 0.000000 0.000000 -92.044300 -79.111800 103.164700 3.847878 14.288081 2.498778 76.875189 -24.648227 -24.406455 -121.792728 51.687828 -94.037658 0.372290 -2.025316 -32.609660 6.664150 -4.089990 -0.283600 7.125000 0.000000 0.000000 26.546000 -31.268900 9.877800 
6.119313 17.502581 -3.248306 -2.845130 15.414836 8.082199 1.295917 3.019331 0.511593 -18.151576 13.442903 -36.762306 13.560146 18.921955 71.929156 0.545634 -1.502659 6.388969 0.554400 -4.769500 -13.252300 -4.039933 -4.432720 0.356410 34.681316 4.142429 -21.204987 -1.377890 -7.868374 26.037986 2.477970 -17.932850 -18.823674 -2.356800 -9.572800 27.604000 7.651166 -3.097693 -4.609887 1.967814 -4.807377 -4.771664 -5.549187 -2.445845 2.216958 -0.687604 -3.917030 -12.001717 -0.553272 -4.357557 19.575341 -1.768600 -2.022100 7.591400 -6.863669 -13.569674 3.108369 -63.197535 4.484679 11.616470 133.097544 -43.203264 -103.326805 0.962097 -0.023026 -69.735325 22.301133 58.769194 19.275500 -7.125000 0.000000 0.000000 -91.135200 -79.305100 102.039300 3.852066 14.320856 2.551607 77.233079 -25.057722 -25.334327 -119.988870 52.375911 -92.561567 0.391256 -2.104646 -31.541307 7.785851 -2.651942 -0.095900 7.125000 0.000000 0.000000 26.933900 -29.824400 11.118400 
6.172715 17.478494 -3.186192 -3.283301 13.277514 7.981826 1.438683 2.905388 0.404931 -16.901099 12.410275 -39.002428 14.897975 19.461475 75.996184 0.420351 -0.698116 6.098785 1.029200 -6.453000 -18.104600 -4.131782 -4.389774 0.404984 35.229564 4.830622 -21.238324 -1.621988 -8.217003 27.214473 2.224229 -16.814831 -18.671298 -2.170400 -9.212300 26.461600 8.056050 -3.066188 -4.276070 2.027085 -4.765091 -4.714441 -5.628320 -2.408334 2.176986 -0.447783 -3.587792 -12.157861 -0.576040 -3.942645 19.582220 -1.826600 -1.804300 7.639400 -6.709065 -13.569865 2.995421 -65.520598 5.882070 11.981597 131.696208 -44.217653 -102.207273 0.955341 -0.101381 -68.038541 22.719319 58.545207 19.650200 -7.125000 0.000000 0.000000 -90.681600 -79.507100 101.365800 3.847967 14.372132 2.593903 77.705419 -25.271994 -26.047592 -117.947239 53.046232 -90.851878 0.397191 -2.167650 -30.496223 8.920224 -1.621202 0.080100 7.125000 0.000000 0.000000 27.434600 -28.766500 12.172000 
6.226425 17.462094 -3.137710 -3.736512 11.433209 8.009268 1.546412 2.771770 0.297575 -15.447652 10.401276 -40.675631 15.953450 19.810199 79.106185 0.251406 0.339121 5.340297 0.535900 -4.690600 -13.028200 -4.217491 -4.325638 0.465821 35.758820 5.768818 -21.550758 -1.899829 -8.662766 28.651730 2.009790 -15.982127 -18.892485 -2.135100 -9.142100 26.240800 8.474860 -3.133848 -3.979255 2.120713 -4.857946 -4.685972 -5.654832 -2.441636 2.071131 -0.237671 -3.278064 -12.226576 -0.698593 -3.537884 19.506118 -1.913700 -1.603900 7.641200 -6.549397 -13.585490 2.888376 -67.844819 6.921744 12.605601 129.593943 -45.538271 -100.530995 0.936477 -0.186413 -66.069202 22.882047 58.336539 19.799600 -7.125000 0.000000 0.000000 -89.849800 -79.630000 100.391400 3.841412 14.430436 2.627121 78.281763 -25.409396 -26.479365 -115.798958 53.642831 -89.004763 0.392851 -2.213882 -29.332458 10.038158 -0.879189 0.242000 7.125000 0.000000 0.000000 27.986300 -27.985200 13.084200 
